<svg width="40" height="34" viewBox="0 0 40 34" fill="none" xmlns="http://www.w3.org/2000/svg">
<path d="M34.735 0.925781H10.7031C7.8 0.925781 5.43813 3.28766 5.43813 6.19078V6.90234H5.265C2.36187 6.90234 0 9.26422 0 12.1673V12.8789V27.8092C0 30.7123 2.36187 33.0742 5.26508 33.0742H29.2969C32.2 33.0742 34.562 30.7123 34.562 27.8092V27.0977H34.7351C37.6382 27.0977 40.0001 24.7358 40.0001 21.8327V6.19078C40 3.28766 37.6382 0.925781 34.735 0.925781V0.925781ZM32.2182 27.8092C32.2182 29.42 30.9077 30.7305 29.2969 30.7305H5.26508C3.65422 30.7305 2.34375 29.42 2.34375 27.8092V20.8477H32.2182V27.8092ZM32.2182 18.5039H2.34375V15.2227H32.2182V18.5039ZM32.2182 12.8789H2.34375V12.1673C2.34375 10.5566 3.65422 9.24609 5.26508 9.24609H29.2969C30.9077 9.24609 32.2182 10.5566 32.2182 12.1673V12.8789ZM37.6562 21.8327C37.6562 23.4434 36.3459 24.7539 34.735 24.7539H34.5619V12.1673C34.5619 9.26422 32.2 6.90234 29.2968 6.90234H7.78188V6.19078C7.78188 4.58 9.09227 3.26953 10.7031 3.26953H34.735C36.3458 3.26953 37.6562 4.58 37.6562 6.19078V21.8327Z" fill="#FFB800"/>
<path d="M5.67725 24.4414H15.9897V26.7852H5.67725V24.4414Z" fill="#FFB800"/>
<path d="M24.5834 24.4414H28.8848V26.7852H24.5834V24.4414Z" fill="#FFB800"/>
</svg>
