<svg width="40" height="40" viewBox="0 0 40 40" fill="none" xmlns="http://www.w3.org/2000/svg">
<g clip-path="url(#clip0_5_44)">
<path d="M20 39.9998C19.8132 39.9998 19.6253 39.9583 19.4531 39.8728C11.5452 36.0227 4.99976 31.8673 4.99976 19.9995V6.24928C4.99976 5.72315 5.3281 5.25436 5.82251 5.07495L19.5727 0.0748209C19.8486 -0.0252658 20.1513 -0.0252658 20.4272 0.0748209L34.1774 5.07488C34.6718 5.25429 35.0002 5.72308 35.0002 6.24921V19.9994C35.0002 31.8673 28.4547 36.0226 20.5468 39.8728C20.3747 39.9583 20.1867 39.9998 20 39.9998V39.9998ZM7.49982 7.12451V19.9995C7.49982 29.3246 11.7088 33.2419 20 37.3557C28.2912 33.2419 32.5002 29.3246 32.5002 19.9995V7.12451L20 2.57975L7.49982 7.12451V7.12451Z" fill="#FFB800"/>
<path d="M19.1162 24.9996L13.2324 19.1158L15 17.3482L19.1162 21.4644L26.9825 13.5981L28.7501 15.3657L19.1162 24.9996Z" fill="#FFB800"/>
</g>
<defs>
<clipPath id="clip0_5_44">
<rect width="40" height="40" fill="white"/>
</clipPath>
</defs>
</svg>
