<svg width="357" height="357" viewBox="0 0 357 357" fill="none" xmlns="http://www.w3.org/2000/svg">
<g opacity="0.3">
<path d="M240.475 321.3C240.475 340.74 224.715 356.5 205.275 356.5H151.725C132.285 356.5 116.525 340.74 116.525 321.3V151.725C116.525 132.285 132.285 116.525 151.725 116.525H321.3C340.74 116.525 356.5 132.285 356.5 151.725V205.275C356.5 224.715 340.74 240.475 321.3 240.475H276.675C256.683 240.475 240.475 256.683 240.475 276.675V321.3Z" fill="#28BD86" stroke="#28BD86"/>
<g style="mix-blend-mode:multiply">
<path d="M116.525 35.7C116.525 16.2596 132.285 0.5 151.725 0.5H205.275C224.715 0.5 240.475 16.2596 240.475 35.7V205.275C240.475 224.715 224.715 240.475 205.275 240.475H35.7C16.2596 240.475 0.5 224.715 0.5 205.275V151.725C0.5 132.285 16.2596 116.525 35.7 116.525H80.325C100.317 116.525 116.525 100.317 116.525 80.325V35.7Z" fill="#1B5FC1"/>
<path d="M116.525 35.7C116.525 16.2596 132.285 0.5 151.725 0.5H205.275C224.715 0.5 240.475 16.2596 240.475 35.7V205.275C240.475 224.715 224.715 240.475 205.275 240.475H35.7C16.2596 240.475 0.5 224.715 0.5 205.275V151.725C0.5 132.285 16.2596 116.525 35.7 116.525H80.325C100.317 116.525 116.525 100.317 116.525 80.325V35.7Z" fill="#1B5FC1" stroke="#1B5FC1"/>
</g>
</g>
</svg>
